<?xml version="1.0" standalone="no"?>
<!DOCTYPE svg PUBLIC "-//W3C//DTD SVG 20010904//EN"
 "http://www.w3.org/TR/2001/REC-SVG-20010904/DTD/svg10.dtd">
<svg version="1.0" xmlns="http://www.w3.org/2000/svg"
 width="144.000000pt" height="144.000000pt" viewBox="0 0 144.000000 144.000000"
 preserveAspectRatio="xMidYMid meet">

<g transform="translate(0.000000,144.000000) scale(0.100000,-0.100000)"
fill="#000000" stroke="none">
<path d="M586 1254 c-90 -22 -173 -71 -251 -149 -112 -112 -165 -236 -165
-390 0 -154 53 -278 165 -390 113 -114 234 -165 390 -165 156 0 279 51 391
164 113 112 164 235 164 391 0 156 -51 277 -165 390 -79 80 -161 127 -256 150
-79 18 -195 18 -273 -1z m-7 -340 c84 -70 -17 -191 -103 -123 -57 45 -18 147
56 149 9 0 30 -12 47 -26z m381 11 c50 -26 57 -94 14 -132 -53 -48 -134 -11
-134 61 0 26 7 40 31 60 35 30 49 32 89 11z m34 -347 c-12 -41 -51 -94 -94
-131 -135 -115 -327 -76 -420 87 -17 28 -30 54 -30 59 0 4 124 7 276 7 l275 0
-7 -22z"/>
</g>
</svg>
